<?xml version="1.0" encoding="utf-8"?>
<!-- Generator: Adobe Illustrator 28.2.0, SVG Export Plug-In . SVG Version: 6.00 Build 0)  -->
<svg xmlns="http://www.w3.org/2000/svg" viewBox="100 370 63 102" xmlns:xlink="http://www.w3.org/1999/xlink">
  <style type="text/css">
    .st0{fill:#0C6D38;}
    .st1{fill:#113B1E;}
  </style>
  <g>
    <g>
      <path class="st0" d="M147.98,401.18h14.84c-0.11-17.22-13.61-30.88-31.09-30.88c-17.48,0-31,13.67-31.11,30.88h14.84
        c0.11-8.85,6.8-15.68,16.26-15.68S147.87,392.33,147.98,401.18z"/>
      <path class="st1" d="M115.47,412.42h-14.84c0.11,17.22,13.61,30.88,31.09,30.88c17.48,0,31-13.67,31.11-30.88h-14.84
        c-0.11,8.85-6.8,15.68-16.26,15.68S115.58,421.27,115.47,412.42z"/>
      <path class="st0" d="M115.47,440.69l-14.84-0.05c0.05,17.22,13.51,30.93,30.98,30.99c17.48,0.06,31.04-13.56,31.21-30.78
        l-14.84-0.05c-0.14,8.85-6.85,15.66-16.32,15.63S115.55,449.54,115.47,440.69z"/>
    </g>
  </g>
</svg>
